# xmcd
#
# Track frame offsets: 
#        150
#        22501
#        35237
#        50951
#        65319
#        85780
#        103052
#        124418
#        137299
#        151349
#        169407
#        186132
#        203233
#        216921
#        230106
#        243570
#        262443
#        277479
#        290118
#        307304
#        326908
#
# Disc length: 4577 seconds
#
# Revision: 0
# Processed by: cddbd v1.5.2PL0 Copyright (c) Steve Scherf et al.
# Submitted via: ExactAudioCopy v0.99pb2
#
DISCID=5d11df15
DTITLE=Guy Clark - Hindsight 21-20 The Anthology 1975-1995
DYEAR=1900
DGENRE=Country
TTITLE0=L.A. Freeway
TTITLE1=Rita Ballou
TTITLE2=She Ain't Goin' Nowhere
TTITLE3=Texas 1947
TTITLE4=Desperados Waiting For The Train
TTITLE5=Texas Cookin'
TTITLE6=Broken Hearted People
TTITLE7=The Last Gunfighter Ballad
TTITLE8=Comfort and Crazy
TTITLE9=The Houston Kid
TTITLE10=New Cut Road
TTITLE11=South Coast of Texas
TTITLE12=Heartbroke
TTITLE13=She's Crazy For Leaving
TTITLE14=Homegrown Tomatoes
TTITLE15=The Randall Knife
TTITLE16=No Deal
TTITLE17=Baton Rouge
TTITLE18=Boats To Build
TTITLE19=Dublin Blues 
TTITLE20=The Cape
EXTD=
EXTT0=
EXTT1=
EXTT2=
EXTT3=
EXTT4=
EXTT5=
EXTT6=
EXTT7=
EXTT8=
EXTT9=
EXTT10=
EXTT11=
EXTT12=
EXTT13=
EXTT14=
EXTT15=
EXTT16=
EXTT17=
EXTT18=
EXTT19=
EXTT20=
PLAYORDER=
